<svg width="76" height="76" viewBox="0 0 76 76" fill="none" xmlns="http://www.w3.org/2000/svg">
<circle cx="38" cy="38" r="38" fill="#DAEDE9"/>
<path d="M16.3472 37.5C16.3472 49.7352 26.2647 59.6528 38.4999 59.6528C50.7352 59.6528 60.6527 49.7352 60.6527 37.5H16.3472Z" fill="#DAEDE9"/>
<path d="M48.4306 37.5C48.4306 49.7344 45.375 59.6528 38.5 59.6528C50.7352 59.6528 60.6528 49.7344 60.6528 37.5H48.4306Z" fill="#D0CFCE"/>
<path d="M41.5631 15.5634C41.5493 16.0789 41.6407 16.5917 41.8317 17.0707C42.0226 17.5497 42.3092 17.9847 42.6738 18.3493C43.3899 19.0656 43.7921 20.0369 43.7921 21.0497C43.7921 22.0624 43.3899 23.0338 42.6738 23.75C41.9578 24.4663 41.5556 25.4376 41.5556 26.4504C41.5556 27.4631 41.9578 28.4344 42.6738 29.1507C43.3899 29.867 43.7921 30.8383 43.7921 31.851C43.7921 32.8638 43.3899 33.8351 42.6738 34.5514M16.3472 37.5C16.3472 49.7352 26.2647 59.6528 38.4999 59.6528C50.7352 59.6528 60.6527 49.7352 60.6527 37.5H16.3472ZM16.3472 29.2049L21.6944 34.5522L16.3472 29.2049ZM33.1856 15.9935C33.2583 16.882 33.6425 17.7164 34.2703 18.3493C34.9863 19.0656 35.3886 20.0369 35.3886 21.0497C35.3886 22.0624 34.9863 23.0338 34.2703 23.75C33.5543 24.4663 33.152 25.4376 33.152 26.4504C33.152 27.4631 33.5543 28.4344 34.2703 29.1507C34.9863 29.867 35.3886 30.8383 35.3886 31.851C35.3886 32.8638 34.9863 33.8351 34.2703 34.5514L33.1856 15.9935ZM37.4076 15.3747C37.3312 16.4426 37.6841 17.5335 38.4999 18.3493C39.216 19.0656 39.6182 20.0369 39.6182 21.0497C39.6182 22.0624 39.216 23.0338 38.4999 23.75C37.7839 24.4663 37.3817 25.4376 37.3817 26.4504C37.3817 27.4631 37.7839 28.4344 38.4999 29.1507C39.216 29.867 39.6182 30.8383 39.6182 31.851C39.6182 32.8638 39.216 33.8351 38.4999 34.5514L37.4076 15.3747Z" stroke="black" stroke-width="2" stroke-miterlimit="10" stroke-linecap="round" stroke-linejoin="round"/>
</svg>
