<svg width="34" height="34" viewBox="0 0 34 34" fill="none" xmlns="http://www.w3.org/2000/svg">
<path d="M23.6905 19.9186C23.3286 19.7326 21.5257 18.8494 21.1903 18.7299C20.855 18.6037 20.6093 18.5439 20.3669 18.9158C20.1212 19.2844 19.4239 20.1045 19.2048 20.3535C18.9923 20.5992 18.7765 20.6291 18.4145 20.4465C16.263 19.3707 14.8519 18.5273 13.4341 16.0936C13.0589 15.4461 13.8093 15.4926 14.5099 14.0947C14.6294 13.849 14.5696 13.6398 14.4767 13.4539C14.3837 13.268 13.6532 11.4684 13.3478 10.7346C13.0522 10.0207 12.7468 10.1203 12.5243 10.107C12.3118 10.0937 12.0694 10.0938 11.8237 10.0938C11.578 10.0938 11.1829 10.1867 10.8476 10.5486C10.5122 10.9172 9.56592 11.8037 9.56592 13.6033C9.56592 15.4029 10.8774 17.1461 11.0567 17.3918C11.2427 17.6375 13.6366 21.3297 17.3122 22.9201C19.6364 23.9229 20.5462 24.0092 21.7083 23.8365C22.4155 23.7303 23.8731 22.9533 24.1753 22.0934C24.4774 21.2367 24.4774 20.5029 24.3878 20.3502C24.2981 20.1875 24.0524 20.0945 23.6905 19.9186Z" fill="#0FA958"/>
<path d="M30.7195 11.2359C29.9691 9.45293 28.8933 7.85254 27.522 6.47793C26.1507 5.10664 24.5503 4.02754 22.764 3.28047C20.9378 2.51348 18.9988 2.125 16.9999 2.125H16.9335C14.9214 2.13496 12.9724 2.5334 11.1396 3.31699C9.36987 4.07402 7.78276 5.1498 6.42475 6.52109C5.06674 7.89238 4.00092 9.48613 3.26381 11.2625C2.50014 13.102 2.11498 15.0576 2.12494 17.0697C2.13491 19.374 2.68608 21.6617 3.71869 23.707V28.7539C3.71869 29.5973 4.40268 30.2812 5.24604 30.2812H10.2962C12.3415 31.3139 14.6292 31.865 16.9335 31.875H17.0033C18.9921 31.875 20.9212 31.4898 22.7374 30.7361C24.5138 29.9957 26.1109 28.9332 27.4788 27.5752C28.8501 26.2172 29.9292 24.6301 30.683 22.8604C31.4665 21.0275 31.865 19.0785 31.8749 17.0664C31.8849 15.0443 31.4931 13.082 30.7195 11.2359ZM25.7025 25.7789C23.3749 28.0832 20.2871 29.3516 16.9999 29.3516H16.9435C14.9413 29.3416 12.9525 28.8436 11.196 27.9072L10.9171 27.7578H6.24213V23.0828L6.09272 22.8039C5.15639 21.0475 4.65834 19.0586 4.64838 17.0564C4.6351 13.7461 5.90014 10.6383 8.22104 8.29746C10.5386 5.95664 13.6365 4.66172 16.9468 4.64844H17.0033C18.6634 4.64844 20.2738 4.97051 21.7912 5.60801C23.272 6.22891 24.6001 7.12207 25.7423 8.26426C26.8812 9.40312 27.7777 10.7346 28.3986 12.2154C29.0427 13.7494 29.3648 15.3764 29.3581 17.0564C29.3382 20.3635 28.04 23.4613 25.7025 25.7789Z" fill="#0FA958"/>
</svg>
